# xmcd
#
# Track frame offsets:
#	150
#	13856
#	29401
#	42667
#	56821
#	71886
#	88281
#	105343
#	121698
#	134426
#	150262
#	167824
#	182397
#	198244
#	212245
#	228188
#	243839
#	256784
#	271420
#	284413
#
# Disc length: 3985 seconds
#
# Revision: 0
# Processed by: cddbd v1.5.2PL0 Copyright (c) Steve Scherf et al.
# Submitted via: EZCDAudioConverter 3.1.0.1
#
DISCID=190f8f14
DTITLE=Nu Country Traxx Volume 214 US
DYEAR=2017
DGENRE=country
TTITLE0=Lady Antebellum - You Look Good
TTITLE1=Rascal Flatts - Yours If You Want It
TTITLE2=Cole Swindell - Flatliner
TTITLE3=Adam Craig - Just A Phase
TTITLE4=Andy Ross - Back On The Backroads
TTITLE5=Easton Corbin - A Girl Like You
TTITLE6=Drew Baldridge ft. Emily Weisband - Rebound
TTITLE7=Marty Hedding - Game Changer
TTITLE8=Matt Gary - Back
TTITLE9=Bailey Bryan - Own It
TTITLE10=Brooke Eden - Act Like You Don't
TTITLE11=The Scott Brothers ft. Eric Paslay - My House
TTITLE12=Kristian Bush - Sing Along
TTITLE13=Presley and Taylor - This Phone
TTITLE14=Rick Monroe - This Side of You
TTITLE15=Parker Willingham - That's What's On My Mind
TTITLE16=TwoShine County - Track 9
TTITLE17=Dan Davidson - Barn Burner
TTITLE18=Beamer Wigley - Boombox
TTITLE19=Leaving Thomas - Waiting Kind Of Girl
EXTD=
EXTT0=
EXTT1=
EXTT2=
EXTT3=
EXTT4=
EXTT5=
EXTT6=
EXTT7=
EXTT8=
EXTT9=
EXTT10=
EXTT11=
EXTT12=
EXTT13=
EXTT14=
EXTT15=
EXTT16=
EXTT17=
EXTT18=
EXTT19=
PLAYORDER=
